<?xml version="1.0" encoding="UTF-8" standalone="no"?>
<!-- Created with Inkscape (http://www.inkscape.org/) -->

<svg
   xmlns:dc="http://purl.org/dc/elements/1.1/"
   xmlns:cc="http://creativecommons.org/ns#"
   xmlns:rdf="http://www.w3.org/1999/02/22-rdf-syntax-ns#"
   xmlns:svg="http://www.w3.org/2000/svg"
   xmlns="http://www.w3.org/2000/svg"
   xmlns:sodipodi="http://sodipodi.sourceforge.net/DTD/sodipodi-0.dtd"
   xmlns:inkscape="http://www.inkscape.org/namespaces/inkscape"
   width="80"
   height="80"
   viewBox="0 0 80.000001 80"
   id="svg5996"
   version="1.1"
   inkscape:version="0.91 r13725"
   sodipodi:docname="JDCleanRead1.svg">
  <defs
     id="defs5998" />
  <sodipodi:namedview
     id="base"
     pagecolor="#ffffff"
     bordercolor="#666666"
     borderopacity="1.0"
     inkscape:pageopacity="0.0"
     inkscape:pageshadow="2"
     inkscape:zoom="7.9195959"
     inkscape:cx="58.044502"
     inkscape:cy="38.333908"
     inkscape:document-units="px"
     inkscape:current-layer="layer1"
     showgrid="false"
     units="px"
     inkscape:window-width="1920"
     inkscape:window-height="1059"
     inkscape:window-x="1920"
     inkscape:window-y="21"
     inkscape:window-maximized="1" />
  <metadata
     id="metadata6001">
    <rdf:RDF>
      <cc:Work
         rdf:about="">
        <dc:format>image/svg+xml</dc:format>
        <dc:type
           rdf:resource="http://purl.org/dc/dcmitype/StillImage" />
        <dc:title></dc:title>
      </cc:Work>
    </rdf:RDF>
  </metadata>
  <g
     inkscape:label="Layer 1"
     inkscape:groupmode="layer"
     id="layer1"
     transform="translate(0,-972.36221)"
     style="display:inline">
    <g
       transform="scale(0.69098282,1.447214)"
       style="font-style:normal;font-weight:normal;font-size:35.41031647px;line-height:125%;font-family:sans-serif;letter-spacing:0px;word-spacing:0px;fill:#000000;fill-opacity:1;stroke:none;stroke-width:1px;stroke-linecap:butt;stroke-linejoin:miter;stroke-opacity:1"
       id="text6015">
      <path
         d="m 26.106866,699.41865 -17.8434796,6.3455 17.8434796,6.31092 0,3.14682 -22.166028,-8.03994 0,-2.87017 22.166028,-8.03994 0,3.14681 z"
         style="fill:#008000"
         id="path6064" />
    </g>
    <g
       transform="scale(0.68473368,1.4604218)"
       style="font-style:normal;font-weight:normal;font-size:35.14430237px;line-height:125%;font-family:sans-serif;letter-spacing:0px;word-spacing:0px;fill:#000000;fill-opacity:1;stroke:none;stroke-width:1px;stroke-linecap:butt;stroke-linejoin:miter;stroke-opacity:1"
       id="text6019">
      <path
         d="m 91.754113,693.18453 0,-3.12317 21.999507,7.97954 0,2.84861 -21.999507,7.97954 0,-3.12318 17.675117,-6.26351 -17.675117,-6.29783 z"
         style="fill:#008000"
         id="path6061" />
    </g>
    <path
       style="fill:#008000;fill-opacity:1;stroke:none;stroke-width:0.5;stroke-linejoin:miter;stroke-miterlimit:4;stroke-dasharray:none;stroke-opacity:1"
       d="m 54.261135,1052.1267 c -0.64632,-0.3058 -1.53264,-1.3204 -2.97106,-3.4011 -2.64864,-3.8313 -4.1547,-5.4088 -6.10301,-6.3926 -1.04433,-0.5274 -1.8503,-0.6689 -3.46175,-0.608 -2.94886,0.1115 -4.77514,1.0495 -9.72626,4.9954 -3.11454,2.4822 -3.91635,3.0579 -4.95598,3.5583 -0.91636,0.4411 -1.77603,0.5932 -2.66788,0.4722 -1.03381,-0.1403 -1.65333,-0.6604 -1.97294,-1.6565 -0.19453,-0.6062 -0.24802,-3.6383 -0.0996,-5.6483 0.072,-0.9755 0.10798,-1.7966 0.0799,-1.8247 -0.0281,-0.028 -0.1632,0.1305 -0.3003,0.3523 -0.41642,0.6738 -0.66933,0.7793 -1.48369,0.6191 -2.01352,-0.3961 -2.78062,-1.6868 -1.96127,-3.2999 0.12653,-0.2491 0.6944,-1.039 1.26193,-1.7553 1.25001,-1.5776 1.74953,-2.3834 2.07213,-3.3426 0.22076,-0.6564 0.23947,-0.8917 0.19133,-2.4065 -0.0503,-1.5808 -0.0813,-1.7704 -0.53173,-3.2458 -0.44909,-1.4711 -0.48149,-1.6678 -0.52936,-3.214 -0.0773,-2.4978 0.0709,-2.8631 2.55647,-6.2998 2.13722,-2.9551 3.31593,-5.6421 3.84474,-8.7646 0.78375,-4.6278 1.42069,-19.29793 1.07955,-24.86433 -0.1186,-1.9351 -0.30573,-3.4374 -0.52915,-4.2481 -0.0638,-0.2316 0.0896,-0.1573 1.09065,0.5276 6.40466,4.3824 14.69461,13.5163 20.28585,22.35123 1.39858,2.2099 1.36968,2.1739 1.95172,2.4314 0.65865,0.2913 1.65881,0.2386 2.41305,-0.1272 0.72552,-0.352 1.54937,-1.1979 1.938689,-1.9908 0.31379,-0.639 0.31868,-0.6792 0.31068,-2.552 -0.0118,-2.76513 -0.31179,-4.12853 -1.114729,-5.06653 -0.347,-0.4054 -0.49152,-0.4816 -1.2217,-0.644 -0.58825,-0.1309 -1.21162,-0.3984 -2.1519,-0.9236 -2.42286,-1.3531 -2.88168,-1.4518 -4.78781,-1.0305 -1.26209,0.2791 -1.91984,0.2819 -2.36509,0.01 -0.63674,-0.3883 -1.00503,-1.6631 -0.72531,-2.5107 0.28185,-0.854 1.71069,-1.7266 3.6868,-2.2515 0.57737,-0.1534 1.07288,-0.302 1.10112,-0.3302 0.0283,-0.028 -0.31866,-0.496 -0.77091,-1.0395 -1.49481,-1.7965 -2.52909,-3.5693 -3.43674,-5.8908 -0.92896,-2.3759 -1.17228,-3.6151 -0.90142,-4.5905 0.26776,-0.9643 1.81938,-1.9136 2.69809,-1.6508 0.57935,0.1733 0.88738,0.5927 1.84849,2.5167 0.96001,1.9218 1.60802,2.9475 2.26498,3.5852 l 0.4558,0.4424 0,-0.2962 c 0,-0.1629 -0.17815,-1.0167 -0.3959,-1.8975 -0.46412,-1.8772 -0.65983,-3.6903 -0.58361,-5.4068 0.0902,-2.0307 0.46517,-2.5193 1.93089,-2.5154 1.37284,0 2.01668,0.4882 2.44928,1.8439 0.0982,0.3078 0.37665,1.5551 0.61874,2.7719 0.36413,1.8301 0.51956,2.3763 0.89983,3.1619 0.252809,0.5223 0.521459,0.9497 0.596999,0.9497 0.0817,0 0.3138,-0.6463 0.57288,-1.595 0.93801,-3.4349 1.53342,-4.4563 2.98016,-5.1126 0.64037,-0.2904 1.78393,-0.3129 2.23928,-0.044 0.8825,0.5213 0.90222,1.7961 0.0592,3.8307 -1.13564,2.7409 -1.21504,3.8886 -0.51087,7.3842 0.4957,2.4608 0.56107,3.604 0.27536,4.8161 -0.2904,1.232 -0.73741,1.9064 -2.11538,3.1916 -0.94421,0.8806 -1.32647,1.3227 -1.57167,1.8174 l -0.32401,0.6537 -0.13239,4.19733 c -0.14975,4.7478 -0.16024,4.8109 -1.06441,6.3938 -1.091239,1.9104 -1.448289,3.2985 -1.445679,5.6202 0.002,1.8623 0.11164,2.3211 1.243169,5.2065 2.551,6.5051 3.99379,12.4017 4.5912,18.764 0.20667,2.2011 0.17625,7.0517 -0.0564,8.9854 -0.37288,3.0998 -0.96593,4.7435 -2.13257,5.9107 -0.85726,0.8577 -1.57227,1.1493 -3.01832,1.2311 -0.850289,0.048 -1.095189,0.022 -1.468219,-0.1542 z m 2.981489,-2.3259 c 1.05852,-0.9934 1.50332,-3.629 1.62316,-9.6177 0.0442,-2.2109 0.0237,-4.0383 -0.0566,-5.0367 -0.54769,-6.8122 -3.591979,-16.2994 -8.027069,-25.0157 -1.42885,-2.8081 -3.4008,-6.1985 -3.62844,-6.2383 -0.40033,-0.07 -0.47505,0.1316 -0.28383,0.766 0.42237,1.4014 0.2969,3.3996 -0.30741,4.8957 -1.49884,3.7108 -5.47973,6.0667 -9.48453,5.613 -2.25482,-0.2554 -3.99714,-1.2017 -5.16857,-2.8073 -0.31065,-0.4257 -0.62211,-0.7741 -0.69216,-0.7741 -0.07,0 -0.45562,0.2203 -0.85684,0.4894 l -0.7295,0.4894 -0.18615,0.9377 c -0.10238,0.5157 -0.66491,3.2294 -1.25005,6.0304 -3.71419,17.779 -4.83509,27.3132 -3.39279,28.8585 0.21049,0.2255 0.32771,0.257 0.80595,0.2166 1.13824,-0.096 1.6883,-0.4843 6.11925,-4.3154 2.26135,-1.9553 3.44438,-2.7951 5.07345,-3.6017 2.01645,-0.9984 2.75013,-1.1737 4.92478,-1.1767 1.98001,0 2.65601,0.1231 3.92994,0.7311 2.39486,1.143 4.01397,2.7663 7.00033,7.0188 0.75855,1.0801 1.59786,2.1888 1.86514,2.4638 l 0.48595,0.5001 0.943339,-0.05 c 0.85515,-0.045 0.97599,-0.08 1.29261,-0.3773 z m -32.590399,-23.7624 c 0.6749,-3.7203 0.75912,-4.4101 0.57417,-4.7022 -0.40648,-0.6418 -1.93437,1.4164 -2.42815,3.271 -0.26133,0.9815 -0.19964,1.7748 0.23746,3.054 0.45972,1.3455 0.82252,2.2207 0.89181,2.1514 0.0269,-0.027 0.35303,-1.7253 0.72471,-3.7742 z m 15.28673,-12.6094 c 0.92597,-0.238 2.10578,-0.8185 2.92871,-1.4412 2.84656,-2.1538 3.57643,-6.372 1.50534,-8.6999 -1.04608,-1.1757 -2.31346,-1.6845 -4.21466,-1.6917 -4.62043,-0.017 -8.54222,3.2221 -8.16375,6.7437 0.26855,2.4988 1.66376,4.2322 4.02161,4.9963 0.97237,0.3151 2.88175,0.3603 3.92275,0.093 z"
       id="path4660"
       inkscape:connector-curvature="0" />
  </g>
</svg>
